<svg width="100" height="74" viewBox="0 0 100 74" fill="none" xmlns="http://www.w3.org/2000/svg">
<rect width="100" height="74" rx="4" fill="white"/>
<mask id="path-2-inside-1_3128_98" fill="white">
<path fill-rule="evenodd" clip-rule="evenodd" d="M15 5C16.1046 5 17 5.89543 17 7H19C20.1046 7 21 7.89543 21 9V10C22.1046 10 23 10.8954 23 12C23 13.1046 22.1046 14 21 14V16C21 17.1046 20.1046 18 19 18H17C17 16.8954 16.1046 16 15 16C13.8954 16 13 16.8954 13 18H11C9.89543 18 9 17.1046 9 16V14C10.1046 14 11 13.1046 11 12C11 10.8954 10.1046 10 9 10V9C9 7.89543 9.89543 7 11 7H13C13 5.89543 13.8954 5 15 5Z"/>
</mask>
<path d="M17 7H16V8H17V7ZM21 10H20V11H21V10ZM21 14V13H20V14H21ZM17 18H16V19H17V18ZM13 18V19H14V18H13ZM9 14V13H8V14H9ZM9 10H8V11H9V10ZM13 7V8H14V7H13ZM18 7C18 5.34315 16.6569 4 15 4V6C15.5523 6 16 6.44772 16 7H18ZM19 6H17V8H19V6ZM22 9C22 7.34315 20.6569 6 19 6V8C19.5523 8 20 8.44772 20 9H22ZM22 10V9H20V10H22ZM21 11C21.5523 11 22 11.4477 22 12H24C24 10.3431 22.6569 9 21 9V11ZM22 12C22 12.5523 21.5523 13 21 13V15C22.6569 15 24 13.6569 24 12H22ZM22 16V14H20V16H22ZM19 19C20.6569 19 22 17.6569 22 16H20C20 16.5523 19.5523 17 19 17V19ZM17 19H19V17H17V19ZM15 17C15.5523 17 16 17.4477 16 18H18C18 16.3431 16.6569 15 15 15V17ZM14 18C14 17.4477 14.4477 17 15 17V15C13.3431 15 12 16.3431 12 18H14ZM11 19H13V17H11V19ZM8 16C8 17.6569 9.34315 19 11 19V17C10.4477 17 10 16.5523 10 16H8ZM8 14V16H10V14H8ZM10 12C10 12.5523 9.55228 13 9 13V15C10.6569 15 12 13.6569 12 12H10ZM9 11C9.55228 11 10 11.4477 10 12H12C12 10.3431 10.6569 9 9 9V11ZM8 9V10H10V9H8ZM11 6C9.34315 6 8 7.34315 8 9H10C10 8.44772 10.4477 8 11 8V6ZM13 6H11V8H13V6ZM15 4C13.3431 4 12 5.34315 12 7H14C14 6.44772 14.4477 6 15 6V4Z" fill="#BDC1C6" mask="url(#path-2-inside-1_3128_98)"/>
<mask id="path-4-inside-2_3128_98" fill="white">
<path fill-rule="evenodd" clip-rule="evenodd" d="M15 55C16.1046 55 17 55.8954 17 57H19C20.1046 57 21 57.8954 21 59V60C22.1046 60 23 60.8954 23 62C23 63.1046 22.1046 64 21 64V66C21 67.1046 20.1046 68 19 68H17C17 66.8954 16.1046 66 15 66C13.8954 66 13 66.8954 13 68H11C9.89543 68 9 67.1046 9 66V64C10.1046 64 11 63.1046 11 62C11 60.8954 10.1046 60 9 60V59C9 57.8954 9.89543 57 11 57H13C13 55.8954 13.8954 55 15 55Z"/>
</mask>
<path d="M17 57H16V58H17V57ZM21 60H20V61H21V60ZM21 64V63H20V64H21ZM17 68H16V69H17V68ZM13 68V69H14V68H13ZM9 64V63H8V64H9ZM9 60H8V61H9V60ZM13 57V58H14V57H13ZM18 57C18 55.3431 16.6569 54 15 54V56C15.5523 56 16 56.4477 16 57H18ZM19 56H17V58H19V56ZM22 59C22 57.3431 20.6569 56 19 56V58C19.5523 58 20 58.4477 20 59H22ZM22 60V59H20V60H22ZM21 61C21.5523 61 22 61.4477 22 62H24C24 60.3431 22.6569 59 21 59V61ZM22 62C22 62.5523 21.5523 63 21 63V65C22.6569 65 24 63.6569 24 62H22ZM22 66V64H20V66H22ZM19 69C20.6569 69 22 67.6569 22 66H20C20 66.5523 19.5523 67 19 67V69ZM17 69H19V67H17V69ZM15 67C15.5523 67 16 67.4477 16 68H18C18 66.3431 16.6569 65 15 65V67ZM14 68C14 67.4477 14.4477 67 15 67V65C13.3431 65 12 66.3431 12 68H14ZM11 69H13V67H11V69ZM8 66C8 67.6569 9.34315 69 11 69V67C10.4477 67 10 66.5523 10 66H8ZM8 64V66H10V64H8ZM10 62C10 62.5523 9.55228 63 9 63V65C10.6569 65 12 63.6569 12 62H10ZM9 61C9.55228 61 10 61.4477 10 62H12C12 60.3431 10.6569 59 9 59V61ZM8 59V60H10V59H8ZM11 56C9.34315 56 8 57.3431 8 59H10C10 58.4477 10.4477 58 11 58V56ZM13 56H11V58H13V56ZM15 54C13.3431 54 12 55.3431 12 57H14C14 56.4477 14.4477 56 15 56V54Z" fill="#BDC1C6" mask="url(#path-4-inside-2_3128_98)"/>
<mask id="path-6-inside-3_3128_98" fill="white">
<path fill-rule="evenodd" clip-rule="evenodd" d="M15 30C16.1046 30 17 30.8954 17 32H19C20.1046 32 21 32.8954 21 34V35C22.1046 35 23 35.8954 23 37C23 38.1046 22.1046 39 21 39V41C21 42.1046 20.1046 43 19 43H17C17 41.8954 16.1046 41 15 41C13.8954 41 13 41.8954 13 43H11C9.89543 43 9 42.1046 9 41V39C10.1046 39 11 38.1046 11 37C11 35.8954 10.1046 35 9 35V34C9 32.8954 9.89543 32 11 32H13C13 30.8954 13.8954 30 15 30Z"/>
</mask>
<path d="M17 32H16V33H17V32ZM21 35H20V36H21V35ZM21 39V38H20V39H21ZM17 43H16V44H17V43ZM13 43V44H14V43H13ZM9 39V38H8V39H9ZM9 35H8V36H9V35ZM13 32V33H14V32H13ZM18 32C18 30.3431 16.6569 29 15 29V31C15.5523 31 16 31.4477 16 32H18ZM19 31H17V33H19V31ZM22 34C22 32.3431 20.6569 31 19 31V33C19.5523 33 20 33.4477 20 34H22ZM22 35V34H20V35H22ZM21 36C21.5523 36 22 36.4477 22 37H24C24 35.3431 22.6569 34 21 34V36ZM22 37C22 37.5523 21.5523 38 21 38V40C22.6569 40 24 38.6569 24 37H22ZM22 41V39H20V41H22ZM19 44C20.6569 44 22 42.6569 22 41H20C20 41.5523 19.5523 42 19 42V44ZM17 44H19V42H17V44ZM15 42C15.5523 42 16 42.4477 16 43H18C18 41.3431 16.6569 40 15 40V42ZM14 43C14 42.4477 14.4477 42 15 42V40C13.3431 40 12 41.3431 12 43H14ZM11 44H13V42H11V44ZM8 41C8 42.6569 9.34315 44 11 44V42C10.4477 42 10 41.5523 10 41H8ZM8 39V41H10V39H8ZM10 37C10 37.5523 9.55228 38 9 38V40C10.6569 40 12 38.6569 12 37H10ZM9 36C9.55228 36 10 36.4477 10 37H12C12 35.3431 10.6569 34 9 34V36ZM8 34V35H10V34H8ZM11 31C9.34315 31 8 32.3431 8 34H10C10 33.4477 10.4477 33 11 33V31ZM13 31H11V33H13V31ZM15 29C13.3431 29 12 30.3431 12 32H14C14 31.4477 14.4477 31 15 31V29Z" fill="#BDC1C6" mask="url(#path-6-inside-3_3128_98)"/>
<rect opacity="0.6" x="32" y="9" width="57" height="6" rx="3" fill="#BDC1C6"/>
<rect opacity="0.6" x="32" y="59" width="57" height="6" rx="3" fill="#BDC1C6"/>
<rect opacity="0.6" x="32" y="34" width="57" height="6" rx="3" fill="#BDC1C6"/>
<rect opacity="0.4" y="24" width="100" height="1" fill="#BDC1C6"/>
<rect opacity="0.4" y="49" width="100" height="1" fill="#BDC1C6"/>
</svg>
