<svg width="16" height="16" viewBox="0 0 16 16" fill="none" xmlns="http://www.w3.org/2000/svg">
<path d="M2.0452 9.97L3.2452 12.04C3.3252 12.17 3.4752 12.22 3.6152 12.17L5.1052 11.57C5.4152 11.81 5.7452 12.01 6.1152 12.16L6.3352 13.75C6.3652 13.89 6.4852 14 6.6352 14H9.0352C9.1852 14 9.3052 13.89 9.3352 13.74L9.5552 12.15C9.9152 12 10.2552 11.8 10.5652 11.56L12.0552 12.16C12.1952 12.21 12.3452 12.16 12.4252 12.03L13.6252 9.96C13.7052 9.83 13.6652 9.67 13.5552 9.57L12.2852 8.58C12.3152 8.39 12.3252 8.19 12.3252 8C12.3252 7.8 12.3052 7.61 12.2852 7.41L13.5552 6.42C13.6652 6.33 13.7052 6.16 13.6252 6.03L12.4252 3.96C12.3452 3.83 12.1952 3.78 12.0552 3.83L10.5652 4.43C10.2552 4.19 9.9252 3.99 9.5552 3.84L9.3352 2.25C9.3052 2.11 9.1852 2 9.0352 2H6.6352C6.4852 2 6.3652 2.11 6.3352 2.26L6.1152 3.85C5.7552 4 5.4052 4.19 5.1052 4.43L3.6152 3.83C3.4752 3.78 3.3252 3.83 3.2452 3.96L2.0452 6.03C1.9652 6.16 2.0052 6.32 2.1152 6.42L3.3852 7.41C3.3552 7.61 3.3352 7.8 3.3352 8C3.3352 8.2 3.3552 8.39 3.3752 8.59L2.1052 9.58C1.9952 9.68 1.9652 9.84 2.0452 9.97ZM7.8352 6.29C8.7752 6.29 9.5452 7.06 9.5452 8C9.5452 8.94 8.7752 9.71 7.8352 9.71C6.8952 9.71 6.1252 8.94 6.1252 8C6.1252 7.06 6.8952 6.29 7.8352 6.29Z" fill="#828282"/>
</svg>
