<?xml version="1.0" encoding="UTF-8" standalone="no"?>
<svg width="16px" height="16px" viewBox="0 0 16 16" version="1.1" xmlns="http://www.w3.org/2000/svg" xmlns:xlink="http://www.w3.org/1999/xlink" xmlns:sketch="http://www.bohemiancoding.com/sketch/ns">
    <!-- Generator: Sketch 3.4 (15575) - http://www.bohemiancoding.com/sketch -->
    <title>icon-open</title>
    <desc>Created with Sketch.</desc>
    <defs></defs>
    <g id="Page-1" stroke="none" stroke-width="1" fill="none" fill-rule="evenodd" sketch:type="MSPage">
        <g id="Artboard-5" sketch:type="MSArtboardGroup" transform="translate(-381.000000, -137.000000)" fill="#2A9AF4">
            <g id="icon-open" sketch:type="MSLayerGroup" transform="translate(381.000000, 137.000000)">
                <path d="M10,0 L16,0 L16,6 L14,6 L14,3 L5.5,11.75 L4.25,10.5 L12.5,2 L10,2 L10,0 Z M14,14 L14,8 L16,8 L16,14.2083333 C16,14.6805579 15.8194461,15.0972205 15.4583333,15.4583333 C15.0972205,15.8194461 14.6805579,16 14.2083333,16 L1.79166667,16 C1.29166427,16 0.868057333,15.8194461 0.520833333,15.4583333 C0.173609333,15.0972205 0,14.6805579 0,14.2083333 L0,1.79166667 C0,1.31944213 0.173609333,0.902779467 0.520833333,0.541666667 C0.868057333,0.180553867 1.29166427,0 1.79166667,0 L8,0 L8,2 L2,2 L2,14 L14,14 Z" id="Shape" sketch:type="MSShapeGroup"></path>
            </g>
        </g>
    </g>
</svg>