<?xml version="1.0" encoding="UTF-8" standalone="no"?>
<svg width="16px" height="16px" viewBox="0 0 16 16" version="1.1" xmlns="http://www.w3.org/2000/svg" xmlns:xlink="http://www.w3.org/1999/xlink" xmlns:sketch="http://www.bohemiancoding.com/sketch/ns">
    <!-- Generator: Sketch 3.4 (15575) - http://www.bohemiancoding.com/sketch -->
    <title>icon-cog</title>
    <desc>Created with Sketch.</desc>
    <defs></defs>
    <g id="Page-1" stroke="none" stroke-width="1" fill="none" fill-rule="evenodd" sketch:type="MSPage">
        <g id="Artboard-5" sketch:type="MSArtboardGroup" transform="translate(-381.000000, -78.000000)" fill="#828282">
            <g id="icon-cog" sketch:type="MSLayerGroup" transform="translate(381.000000, 78.000000)">
                <path d="M8,10.8169014 C8.79455743,10.8169014 9.47376564,10.5414738 10.037645,9.99061033 C10.6015244,9.43974688 10.88346,8.77621676 10.88346,8 C10.88346,7.22378324 10.6015244,6.56025312 10.037645,6.00938967 C9.47376564,5.45852623 8.79455743,5.18309859 8,5.18309859 C7.20544257,5.18309859 6.52623436,5.45852623 5.96235496,6.00938967 C5.39847556,6.56025312 5.11654004,7.22378324 5.11654004,8 C5.11654004,8.77621676 5.39847556,9.43974688 5.96235496,9.99061033 C6.52623436,10.5414738 7.20544257,10.8169014 8,10.8169014 L8,10.8169014 Z M14.1129351,8.78873239 L15.8430111,10.1032864 C16.0224272,10.2284826 16.0480578,10.4037547 15.9199034,10.629108 L14.2667197,13.4084507 C14.1641961,13.5837254 13.997598,13.6338033 13.7669199,13.5586854 L11.7292749,12.7699531 C11.1910263,13.1455418 10.7296774,13.40845 10.3452141,13.5586854 L10.037645,15.6619718 C9.98638337,15.8873251 9.8582309,16 9.65318371,16 L6.34681629,16 C6.14176934,16 6.01361663,15.8873251 5.96235496,15.6619718 L5.6547859,13.5586854 C5.16779901,13.3583716 4.70645009,13.0954632 4.27072512,12.7699531 L2.23308008,13.5586854 C2.00240205,13.6338033 1.83580394,13.5837254 1.73328035,13.4084507 L0.0800966383,10.629108 C-0.0480577939,10.4037547 -0.0224272027,10.2284826 0.156988904,10.1032864 L1.88706488,8.78873239 C1.86143404,8.61345773 1.84861875,8.35054957 1.84861875,8 C1.84861875,7.64945043 1.86143404,7.38654227 1.88706488,7.21126761 L0.156988904,5.89671362 C-0.0224272027,5.77151736 -0.0480577939,5.59624533 0.0800966383,5.37089202 L1.73328035,2.5915493 C1.83580394,2.41627463 2.00240205,2.3661967 2.23308008,2.44131455 L4.27072512,3.23004695 C4.80897368,2.85445817 5.2703226,2.59155002 5.6547859,2.44131455 L5.96235496,0.338028169 C6.01361663,0.112674854 6.14176934,0 6.34681629,0 L9.65318371,0 C9.8582309,0 9.98638337,0.112674854 10.037645,0.338028169 L10.3452141,2.44131455 C10.832201,2.64162842 11.2935499,2.90453682 11.7292749,3.23004695 L13.7669199,2.44131455 C13.997598,2.3661967 14.1641961,2.41627463 14.2667197,2.5915493 L15.9199034,5.37089202 C16.0480578,5.59624533 16.0224272,5.77151736 15.8430111,5.89671362 L14.1129351,7.21126761 C14.138566,7.38654227 14.1513813,7.64945043 14.1513813,8 C14.1513813,8.35054957 14.138566,8.61345773 14.1129351,8.78873239 L14.1129351,8.78873239 Z" id="Shape" sketch:type="MSShapeGroup"></path>
            </g>
        </g>
    </g>
</svg>